<svg width="84" height="20" viewBox="0 0 84 20" fill="none" xmlns="http://www.w3.org/2000/svg">
<path d="M36.2053 13.708C35.8453 14.1774 35.3463 14.5329 34.7083 14.7744C34.0702 15.016 33.3456 15.1367 32.5344 15.1367C31.7004 15.1367 30.9622 14.9476 30.3196 14.5693C29.677 14.1911 29.1803 13.651 28.8293 12.9492C28.483 12.2428 28.303 11.4202 28.2893 10.4814V9.70215C28.2893 8.19824 28.6493 7.02474 29.3694 6.18164C30.0894 5.33398 31.0943 4.91016 32.384 4.91016C33.4915 4.91016 34.371 5.18359 35.0227 5.73047C35.6744 6.27734 36.0663 7.06576 36.1985 8.0957H34.5032C34.3118 6.89714 33.6168 6.29785 32.4182 6.29785C31.6435 6.29785 31.0533 6.57812 30.6477 7.13867C30.2467 7.69466 30.0393 8.5127 30.0256 9.59277V10.3584C30.0256 11.4339 30.2512 12.2702 30.7024 12.8672C31.1581 13.4596 31.7893 13.7559 32.5959 13.7559C33.4801 13.7559 34.109 13.5553 34.4827 13.1543V11.2061H32.4319V9.89355H36.2053V13.708ZM37.914 11.2334C37.914 10.5088 38.0576 9.8571 38.3447 9.27832C38.6318 8.69499 39.0351 8.24837 39.5547 7.93848C40.0742 7.62402 40.6712 7.4668 41.3457 7.4668C42.3437 7.4668 43.1526 7.78809 43.7724 8.43066C44.3968 9.07324 44.734 9.92546 44.7842 10.9873L44.791 11.377C44.791 12.1061 44.6497 12.7578 44.3672 13.332C44.0892 13.9062 43.6881 14.3506 43.164 14.665C42.6445 14.9795 42.0429 15.1367 41.3593 15.1367C40.3157 15.1367 39.4795 14.7904 38.8506 14.0977C38.2262 13.4004 37.914 12.473 37.914 11.3154V11.2334ZM39.5752 11.377C39.5752 12.138 39.7324 12.735 40.0468 13.168C40.3613 13.5964 40.7988 13.8105 41.3593 13.8105C41.9199 13.8105 42.3551 13.5918 42.665 13.1543C42.9795 12.7168 43.1367 12.0765 43.1367 11.2334C43.1367 10.486 42.9749 9.89355 42.6513 9.45605C42.3323 9.01855 41.8971 8.7998 41.3457 8.7998C40.8034 8.7998 40.3727 9.01628 40.0537 9.44922C39.7347 9.8776 39.5752 10.5202 39.5752 11.377ZM46.1647 11.2334C46.1647 10.5088 46.3083 9.8571 46.5954 9.27832C46.8825 8.69499 47.2858 8.24837 47.8054 7.93848C48.3249 7.62402 48.9219 7.4668 49.5964 7.4668C50.5944 7.4668 51.4033 7.78809 52.0231 8.43066C52.6475 9.07324 52.9847 9.92546 53.0349 10.9873L53.0417 11.377C53.0417 12.1061 52.9004 12.7578 52.6179 13.332C52.3399 13.9062 51.9388 14.3506 51.4147 14.665C50.8952 14.9795 50.2936 15.1367 49.61 15.1367C48.5664 15.1367 47.7302 14.7904 47.1013 14.0977C46.4769 13.4004 46.1647 12.473 46.1647 11.3154V11.2334ZM47.8259 11.377C47.8259 12.138 47.9831 12.735 48.2975 13.168C48.612 13.5964 49.0495 13.8105 49.61 13.8105C50.1706 13.8105 50.6058 13.5918 50.9157 13.1543C51.2302 12.7168 51.3874 12.0765 51.3874 11.2334C51.3874 10.486 51.2256 9.89355 50.902 9.45605C50.583 9.01855 50.1478 8.7998 49.5964 8.7998C49.0541 8.7998 48.6234 9.01628 48.3044 9.44922C47.9854 9.8776 47.8259 10.5202 47.8259 11.377ZM54.4359 11.2471C54.4359 10.0986 54.7048 9.18262 55.2426 8.49902C55.7849 7.81087 56.5027 7.4668 57.3959 7.4668C58.239 7.4668 58.9021 7.76074 59.3852 8.34863L59.4604 7.60352H60.9574V14.7744C60.9574 15.7451 60.6544 16.5107 60.0483 17.0713C59.4467 17.6318 58.6332 17.9121 57.6078 17.9121C57.0655 17.9121 56.5346 17.7982 56.015 17.5703C55.5001 17.347 55.1081 17.0531 54.8393 16.6885L55.6254 15.6904C56.1358 16.2965 56.7647 16.5996 57.5121 16.5996C58.0636 16.5996 58.4988 16.4492 58.8178 16.1484C59.1368 15.8522 59.2963 15.4147 59.2963 14.8359V14.3369C58.8178 14.8701 58.1798 15.1367 57.3822 15.1367C56.5164 15.1367 55.8077 14.7926 55.2563 14.1045C54.7094 13.4163 54.4359 12.4639 54.4359 11.2471ZM56.0902 11.3906C56.0902 12.1335 56.2406 12.7191 56.5414 13.1475C56.8468 13.5713 57.2683 13.7832 57.8061 13.7832C58.476 13.7832 58.9727 13.4961 59.2963 12.9219V9.66797C58.9818 9.10742 58.4897 8.82715 57.8197 8.82715C57.2729 8.82715 56.8468 9.04362 56.5414 9.47656C56.2406 9.90951 56.0902 10.5475 56.0902 11.3906ZM64.7169 15H63.0558V4.5H64.7169V15ZM70.0692 15.1367C69.0165 15.1367 68.162 14.8063 67.5057 14.1455C66.854 13.4801 66.5282 12.596 66.5282 11.4932V11.2881C66.5282 10.5498 66.6695 9.89128 66.952 9.3125C67.2391 8.72917 67.6402 8.27572 68.1551 7.95215C68.6701 7.62858 69.2443 7.4668 69.8778 7.4668C70.8849 7.4668 71.662 7.78809 72.2088 8.43066C72.7603 9.07324 73.036 9.98242 73.036 11.1582V11.8281H68.203C68.2531 12.4388 68.4559 12.9219 68.8114 13.2773C69.1714 13.6328 69.6226 13.8105 70.1649 13.8105C70.926 13.8105 71.5458 13.5029 72.0243 12.8877L72.9198 13.7422C72.6236 14.1842 72.2271 14.5283 71.7303 14.7744C71.2381 15.016 70.6844 15.1367 70.0692 15.1367ZM69.8709 8.7998C69.4152 8.7998 69.0461 8.95931 68.7635 9.27832C68.4855 9.59733 68.3078 10.0417 68.2303 10.6113H71.3954V10.4883C71.3589 9.93229 71.2108 9.51302 70.951 9.23047C70.6913 8.94336 70.3312 8.7998 69.8709 8.7998Z" fill="black"/>
<g clip-path="url(#clip0_1_179)">
<path d="M17.6589 8.33402C17.737 8.33402 17.8003 8.39888 17.8003 8.47889V10C17.8003 10.5693 17.7487 11.126 17.6497 11.666C16.8835 15.8604 13.2752 19.0303 8.95014 18.9998C4.09707 18.9655 0.213154 14.9498 0.223899 9.97972C0.234576 5.01857 4.16518 1 9.0121 1C11.3867 1 13.5413 1.96476 15.1232 3.53188C15.1803 3.58845 15.1818 3.68168 15.1256 3.7392L13.0242 5.89115C12.9701 5.94656 12.8827 5.948 12.8273 5.89396C11.8345 4.92614 10.4912 4.33197 9.0121 4.33197C5.95781 4.33197 3.49831 6.83284 3.47757 9.96066C3.45673 13.109 5.94271 15.668 9.0121 15.668C11.5025 15.668 13.6089 13.9832 14.3034 11.666H9.15357C9.07544 11.666 9.0121 11.6011 9.0121 11.5211V8.47886C9.0121 8.39884 9.07544 8.33398 9.15357 8.33398H17.6589V8.33402Z" fill="#2196F3"/>
<path d="M17.6585 8.33398H16.5976C16.6757 8.33398 16.739 8.39885 16.739 8.47886V9.99997C16.739 10.5693 16.6874 11.126 16.5884 11.666C15.8575 15.6675 12.5397 18.7365 8.48071 18.9837C8.63602 18.9931 8.79235 18.9986 8.94979 18.9997C13.2749 19.0303 16.8832 15.8604 17.6493 11.666C17.7484 11.126 17.8 10.5693 17.8 9.99997V8.47883C17.8 8.39885 17.7366 8.33398 17.6585 8.33398Z" fill="#1E88E5"/>
<path d="M3.98457 7.62632L1.31555 5.65138C2.81292 2.87787 5.69834 1 9.01171 1C11.3864 1 13.5409 1.96476 15.1228 3.53188C15.1799 3.58845 15.1814 3.68168 15.1252 3.7392L13.0238 5.89115C12.9698 5.94645 12.8824 5.94817 12.8271 5.89424C11.8343 4.92625 10.4909 4.332 9.01171 4.332C6.78266 4.332 4.86126 5.68144 3.98457 7.62632Z" fill="#F44336"/>
<path d="M3.21411 7.05622L3.98463 7.62635C4.78484 5.85117 6.45556 4.57268 8.43601 4.36297C8.45091 4.36132 8.46522 4.35931 8.48039 4.35784C8.30611 4.34089 8.12948 4.33203 7.95083 4.33203C5.9372 4.33203 4.18229 5.41917 3.21411 7.05622Z" fill="#E53935"/>
<path d="M14.0618 3.53188C14.1189 3.58845 14.1204 3.68168 14.0642 3.73923L12.3586 5.4859C12.522 5.61317 12.6784 5.74929 12.8269 5.894C12.8823 5.94803 12.9697 5.94659 13.0238 5.89118L15.1252 3.73923C15.1813 3.68168 15.1798 3.58848 15.1227 3.53188C13.5409 1.96476 11.3863 1 9.0117 1C8.83349 1 8.6567 1.00608 8.48114 1.0168C10.6452 1.14882 12.5986 2.08232 14.0618 3.53188Z" fill="#E53935"/>
<path d="M15.4585 16.1164C13.8536 17.89 11.5591 19 9.01176 19C5.57109 19 2.59229 16.9751 1.14972 14.0252L3.87459 12.1129C4.69227 14.1965 6.68438 15.668 9.01176 15.668C10.4723 15.668 11.8006 15.0885 12.7895 14.1418L15.4585 16.1164Z" fill="#4CAF50"/>
<path d="M3.87467 12.1129L3.07117 12.6768C4.0044 14.4572 5.8396 15.668 7.95087 15.668C8.12941 15.668 8.3059 15.659 8.48012 15.6421C6.38437 15.4375 4.62929 14.0359 3.87467 12.1129Z" fill="#43A047"/>
<path d="M9.01181 19.0001C11.5592 19.0001 13.8537 17.89 15.4585 16.1165L14.8048 15.6328C13.2979 17.5534 11.0373 18.8275 8.48267 18.9837C8.65774 18.9944 8.83413 19.0001 9.01181 19.0001Z" fill="#43A047"/>
<path d="M3.47711 9.99998C3.47711 10.7468 3.61821 11.4599 3.87461 12.1129L1.14971 14.0252C0.557017 12.8141 0.223511 11.4469 0.223511 9.99998C0.223511 8.42273 0.619599 6.94034 1.31559 5.65137L3.9846 7.6263C3.65889 8.3481 3.47711 9.15251 3.47711 9.99998Z" fill="#FFC107"/>
<path d="M3.0711 12.6768L3.8746 12.1129C3.6182 11.4599 3.47711 10.7468 3.47711 9.99997C3.47711 9.15249 3.65888 8.34808 3.98459 7.62628L3.21408 7.05615C2.71373 7.90219 2.42334 8.89497 2.41627 9.96066C2.40975 10.9434 2.64754 11.8688 3.0711 12.6768Z" fill="#FFB300"/>
</g>
<defs>
<clipPath id="clip0_1_179">
<rect width="17.5765" height="18" fill="white" transform="translate(0.223511 1)"/>
</clipPath>
</defs>
</svg>
